<?xml version="1.0" encoding="utf-8"?>
<!-- Generator: Adobe Illustrator 21.0.0, SVG Export Plug-In . SVG Version: 6.00 Build 0)  -->
<svg version="1.1" id="Layer_1" xmlns="http://www.w3.org/2000/svg" xmlns:xlink="http://www.w3.org/1999/xlink" x="0px" y="0px"
	 viewBox="0 0 36 34.9" style="enable-background:new 0 0 36 34.9;" xml:space="preserve">
<style type="text/css">
	.st0{fill:url(#SVGID_1_);}
	.st1{fill:url(#SVGID_2_);}
</style>
<g>
	<linearGradient id="SVGID_1_" gradientUnits="userSpaceOnUse" x1="0.4458" y1="0.2129" x2="35.5542" y2="35.3213">
		<stop  offset="0" style="stop-color:#282828"/>
		<stop  offset="1" style="stop-color:#141414"/>
	</linearGradient>
	<path class="st0" d="M0,34.9V1.1C0,0.5,0.5,0,1.1,0h33.8C35.5,0,36,0.5,36,1.1v33.8"/>
	<g>
		<linearGradient id="SVGID_2_" gradientUnits="userSpaceOnUse" x1="10.1507" y1="10.8208" x2="24.6914" y2="25.3614">
			<stop  offset="0" style="stop-color:#00A0FF"/>
			<stop  offset="1" style="stop-color:#003CC8"/>
		</linearGradient>
		<path class="st1" d="M26.8,20c-0.2,0.6-0.5,1.1-0.9,1.5c-0.4,0.4-0.8,0.7-1.3,0.9c-0.5,0.2-1.1,0.3-1.8,0.3H20v-9.4h2.7
			c0.7,0,1.3,0.1,1.8,0.3s1,0.5,1.3,0.9c0.4,0.4,0.7,0.9,0.9,1.5c0.2,0.6,0.3,1.2,0.3,2C27.1,18.7,27,19.4,26.8,20z M28.7,15.4
			c-0.3-0.8-0.7-1.5-1.3-2c-0.6-0.6-1.2-1-2-1.3c-0.8-0.3-1.7-0.5-2.6-0.5H18v12.8h4.8c1,0,1.8-0.2,2.6-0.5c0.8-0.3,1.5-0.7,2-1.3
			c0.6-0.6,1-1.2,1.3-2c0.3-0.8,0.5-1.7,0.5-2.6C29.2,17.1,29,16.2,28.7,15.4z M8.2,15.3c0.3,0,0.5,0,0.6-0.1
			C8.9,15.2,9,15,9.1,14.8c0.1-0.2,0.2-0.5,0.3-0.7c0.1-0.2,0.3-0.4,0.5-0.5c0.2-0.1,0.4-0.3,0.7-0.3c0.2-0.1,0.5-0.1,0.8-0.1
			c0.3,0,0.6,0,0.8,0.1c0.2,0.1,0.5,0.2,0.6,0.4c0.2,0.2,0.3,0.4,0.4,0.6c0.1,0.2,0.2,0.5,0.2,0.9c0,0.3,0,0.6-0.1,0.8
			c-0.1,0.3-0.3,0.5-0.5,0.7c-0.2,0.2-0.5,0.3-0.9,0.4c-0.4,0.1-0.8,0.2-1.4,0.2v1.4c0.7,0,1.2,0.1,1.6,0.2s0.7,0.3,0.9,0.4
			c0.2,0.2,0.4,0.4,0.4,0.7c0.1,0.3,0.1,0.6,0.1,0.9c0,0.3-0.1,0.5-0.2,0.8c-0.1,0.3-0.3,0.5-0.5,0.7c-0.2,0.2-0.5,0.4-0.8,0.5
			c-0.3,0.1-0.7,0.2-1.1,0.2c-0.4,0-0.7-0.1-1-0.2c-0.3-0.1-0.5-0.3-0.7-0.5c-0.2-0.2-0.3-0.4-0.5-0.6c-0.1-0.2-0.2-0.4-0.3-0.6
			c-0.1-0.2-0.2-0.3-0.4-0.3c-0.2,0-0.4,0-0.6,0.1l-0.8,0.3c0.2,0.5,0.4,1,0.6,1.4c0.2,0.4,0.5,0.8,0.9,1.1c0.3,0.3,0.8,0.5,1.2,0.7
			c0.5,0.2,1,0.2,1.7,0.2c0.6,0,1.1-0.1,1.7-0.3c0.5-0.2,1-0.4,1.4-0.8c0.4-0.3,0.7-0.7,0.9-1.2c0.2-0.5,0.3-1,0.3-1.6
			c0-0.8-0.2-1.4-0.6-1.9c-0.4-0.5-1-0.9-1.8-1.1c0.3-0.1,0.6-0.2,0.9-0.4c0.3-0.2,0.5-0.4,0.7-0.6c0.2-0.2,0.3-0.5,0.4-0.8
			s0.1-0.7,0.1-1.1c0-0.5-0.1-0.9-0.3-1.3c-0.2-0.4-0.4-0.7-0.8-1c-0.3-0.3-0.7-0.5-1.2-0.7c-0.5-0.2-1-0.2-1.6-0.2
			c-0.6,0-1.1,0.1-1.6,0.2c-0.5,0.2-0.9,0.4-1.3,0.7c-0.4,0.3-0.7,0.7-0.9,1.1c-0.2,0.5-0.4,1-0.5,1.6L8.2,15.3z"/>
	</g>
</g>
</svg>
