<?xml version="1.0" encoding="utf-8"?>
<!-- Generator: Adobe Illustrator 21.0.0, SVG Export Plug-In . SVG Version: 6.00 Build 0)  -->
<svg version="1.1" id="Layer_1" xmlns="http://www.w3.org/2000/svg" xmlns:xlink="http://www.w3.org/1999/xlink" x="0px" y="0px"
	 viewBox="0 0 12 12" style="enable-background:new 0 0 12 12;" xml:space="preserve">
<style type="text/css">
	.st0{fill:#323232;}
</style>
<path class="st0" d="M6,1.9C3.3,1.9,0.9,3.6,0,6c0.9,2.4,3.3,4.1,6,4.1s5.1-1.7,6-4.1C11.1,3.6,8.7,1.9,6,1.9z M6,8.7
	C4.5,8.7,3.3,7.5,3.3,6S4.5,3.3,6,3.3S8.7,4.5,8.7,6S7.5,8.7,6,8.7z M6,4.8C5.3,4.8,4.8,5.3,4.8,6S5.3,7.3,6,7.3S7.3,6.7,7.3,6
	S6.7,4.8,6,4.8z"/>
</svg>
