<?xml version="1.0" encoding="utf-8"?>
<!-- Generator: Adobe Illustrator 21.0.0, SVG Export Plug-In . SVG Version: 6.00 Build 0)  -->
<svg version="1.1" id="Layer_1" xmlns="http://www.w3.org/2000/svg" xmlns:xlink="http://www.w3.org/1999/xlink" x="0px" y="0px"
	 viewBox="0 0 12 12" style="enable-background:new 0 0 12 12;" xml:space="preserve">
<style type="text/css">
	.st0{fill:#323232;}
</style>
<path class="st0" d="M0.5,11h2V5h-2V11z M11.5,5.5c0-0.6-0.4-1-1-1H7.3l0.5-2.3V2c0-0.2-0.1-0.4-0.2-0.5L7.1,1L3.8,4.3
	C3.6,4.5,3.5,4.7,3.5,5v5c0,0.6,0.5,1,1,1H9c0.4,0,0.8-0.3,0.9-0.6l1.5-3.5c0-0.1,0.1-0.2,0.1-0.4V5.5L11.5,5.5L11.5,5.5z"/>
</svg>
