<?xml version="1.0" encoding="utf-8"?>
<!-- Generator: Adobe Illustrator 21.0.0, SVG Export Plug-In . SVG Version: 6.00 Build 0)  -->
<svg version="1.1" id="Layer_1" xmlns="http://www.w3.org/2000/svg" xmlns:xlink="http://www.w3.org/1999/xlink" x="0px" y="0px"
	 viewBox="0 0 19.9 20" style="enable-background:new 0 0 19.9 20;" xml:space="preserve">
<style type="text/css">
	.st0{fill:#646464;}
</style>
<g>
	<g>
		<g>
			<path class="st0" d="M17.1,0H2.7C1.3,0,0,1.1,0,2.7v14.5c0,1.5,1.1,2.7,2.7,2.7h7.1v-7H8c-0.2,0-0.4-0.2-0.4-0.4v-2.3
				C7.6,10,7.8,9.8,8,9.8h1.8V7.6c0-2.5,1.6-4,3.9-4h1.8c0.2,0,0.4,0.2,0.4,0.4v1.9c0,0.2-0.2,0.5-0.4,0.5h-1.1
				c-1.3,0-1.5,0.5-1.5,1.5v1.9h2.7c0.2,0,0.5,0.2,0.4,0.5l-0.2,2.3c0,0.2-0.2,0.4-0.4,0.4H13v7h4.2c1.5,0,2.7-1.1,2.7-2.7V2.7
				C19.8,1.3,18.5,0,17.1,0z"/>
		</g>
	</g>
</g>
</svg>
