<?xml version="1.0" encoding="utf-8"?>
<!-- Generator: Adobe Illustrator 21.0.0, SVG Export Plug-In . SVG Version: 6.00 Build 0)  -->
<svg version="1.1" id="Layer_1" xmlns="http://www.w3.org/2000/svg" xmlns:xlink="http://www.w3.org/1999/xlink" x="0px" y="0px"
	 viewBox="0 0 30 30" style="enable-background:new 0 0 30 30;" xml:space="preserve">
<style type="text/css">
	.st0{opacity:0.25;}
	.st1{fill:#FFFFFF;}
</style>
<g class="st0">
	<g>
		<g>
			<g>
				<g>
					<path class="st1" d="M19.1,5.1H11c-3.3,0-6,2.7-6,5.9V19c0,3.3,2.7,5.9,5.9,5.9h8.2c3.3,0,5.9-2.7,5.9-5.9v-8.1
						C25.1,7.7,22.4,5.1,19.1,5.1z M23,19.3c0,2.2-1.8,3.9-3.9,3.9H11c-2.2,0-3.9-1.8-3.9-3.9v-8.2c0-2.2,1.8-3.9,3.9-3.9h8.1
						c2.2,0,3.9,1.8,3.9,3.9V19.3L23,19.3z"/>
					<path class="st1" d="M15,9.9c-2.9,0-5.2,2.3-5.2,5.2s2.3,5.2,5.2,5.2s5.2-2.3,5.2-5.2S17.9,9.9,15,9.9z M15,18.4
						c-1.8,0-3.2-1.4-3.2-3.2S13.2,12,15,12s3.2,1.4,3.2,3.2S16.8,18.4,15,18.4z"/>
					<circle class="st1" cx="20.2" cy="9.9" r="1.2"/>
				</g>
			</g>
		</g>
	</g>
</g>
</svg>
