<?xml version="1.0" encoding="utf-8"?>
<!-- Generator: Adobe Illustrator 21.0.0, SVG Export Plug-In . SVG Version: 6.00 Build 0)  -->
<svg version="1.1" id="Layer_1" xmlns="http://www.w3.org/2000/svg" xmlns:xlink="http://www.w3.org/1999/xlink" x="0px" y="0px"
	 viewBox="0 0 19.9 20" style="enable-background:new 0 0 19.9 20;" xml:space="preserve">
<style type="text/css">
	.st0{fill:#646464;}
</style>
<g>
	<g>
		<g>
			<g>
				<path class="st0" d="M14,0H5.9C2.6,0-0.1,2.7-0.1,5.9v8.1c0,3.3,2.7,5.9,5.9,5.9H14c3.3,0,5.9-2.7,5.9-5.9V5.9
					C20,2.6,17.3,0,14,0z M17.9,14.2c0,2.2-1.8,3.9-3.9,3.9H5.9c-2.2,0-3.9-1.8-3.9-3.9V6c0-2.2,1.8-3.9,3.9-3.9H14
					c2.2,0,3.9,1.8,3.9,3.9V14.2L17.9,14.2z"/>
				<path class="st0" d="M9.9,4.8c-2.9,0-5.2,2.3-5.2,5.2s2.3,5.2,5.2,5.2s5.2-2.3,5.2-5.2S12.8,4.8,9.9,4.8z M9.9,13.3
					c-1.8,0-3.2-1.4-3.2-3.2s1.4-3.2,3.2-3.2s3.2,1.4,3.2,3.2S11.7,13.3,9.9,13.3z"/>
				<circle class="st0" cx="15.1" cy="4.8" r="1.2"/>
			</g>
		</g>
	</g>
</g>
</svg>
