<?xml version="1.0" encoding="utf-8"?>
<!-- Generator: Adobe Illustrator 21.0.0, SVG Export Plug-In . SVG Version: 6.00 Build 0)  -->
<svg version="1.1" id="Layer_1" xmlns="http://www.w3.org/2000/svg" xmlns:xlink="http://www.w3.org/1999/xlink" x="0px" y="0px"
	 viewBox="0 0 44.2 43.7" style="enable-background:new 0 0 44.2 43.7;" xml:space="preserve">
<style type="text/css">
	.st0{fill:url(#SVGID_1_);}
</style>
<linearGradient id="SVGID_1_" gradientUnits="userSpaceOnUse" x1="39.8623" y1="12.5625" x2="4.3574" y2="48.0674">
	<stop  offset="0" style="stop-color:#323232"/>
	<stop  offset="1.484394e-02" style="stop-color:#2F2F2F"/>
	<stop  offset="0.1264" style="stop-color:#1E1E1E"/>
	<stop  offset="0.2646" style="stop-color:#131313"/>
	<stop  offset="0.4594" style="stop-color:#0C0C0C"/>
	<stop  offset="1" style="stop-color:#0A0A0A"/>
</linearGradient>
<path class="st0" d="M27.3,0H16.9L0,43.7h7.9c0.8,0,1.5-0.2,2.1-0.7c0.6-0.5,1-1,1.2-1.5l2.6-7.6h16.6l2.6,7.6
	c0.3,0.6,0.7,1.2,1.2,1.6c0.5,0.4,1.2,0.6,2.1,0.6h7.9L27.3,0z M16.1,27l4-11.9c0.3-0.8,0.6-1.7,1-2.7c0.3-1,0.7-2.2,1-3.4
	c0.3,1.2,0.7,2.3,1,3.3c0.3,1,0.7,1.9,1,2.7l4.1,12H16.1z"/>
</svg>
