<?xml version="1.0" encoding="utf-8"?>
<!-- Generator: Adobe Illustrator 21.0.0, SVG Export Plug-In . SVG Version: 6.00 Build 0)  -->
<svg version="1.1" id="Layer_1" xmlns="http://www.w3.org/2000/svg" xmlns:xlink="http://www.w3.org/1999/xlink" x="0px" y="0px"
	 viewBox="0 0 38.2 43.7" style="enable-background:new 0 0 38.2 43.7;" xml:space="preserve">
<style type="text/css">
	.st0{fill:url(#SVGID_1_);}
</style>
<linearGradient id="SVGID_1_" gradientUnits="userSpaceOnUse" x1="39.5472" y1="1.3876" x2="-1.3876" y2="42.3224">
	<stop  offset="0" style="stop-color:#323232"/>
	<stop  offset="1.484394e-02" style="stop-color:#2F2F2F"/>
	<stop  offset="0.1264" style="stop-color:#1E1E1E"/>
	<stop  offset="0.2646" style="stop-color:#131313"/>
	<stop  offset="0.4594" style="stop-color:#0C0C0C"/>
	<stop  offset="1" style="stop-color:#0A0A0A"/>
</linearGradient>
<path class="st0" d="M29.2,0v23.1c0,0.7,0,1.4,0.1,2.2c0,0.8,0.1,1.6,0.2,2.4L8.7,1.6C8.4,1.2,8.2,1,7.9,0.8
	C7.7,0.6,7.5,0.4,7.3,0.3C7,0.2,6.8,0.1,6.4,0.1S5.8,0,5.3,0H0v43.7h8.9V20.3c0-0.6,0-1.3,0-2.1c0-0.7-0.1-1.5-0.2-2.3L29.3,42
	c0.5,0.6,1,1.1,1.6,1.3c0.5,0.3,1.2,0.4,2,0.4h5.3V0H29.2z"/>
</svg>
