<?xml version="1.0" encoding="utf-8"?>
<!-- Generator: Adobe Illustrator 21.0.0, SVG Export Plug-In . SVG Version: 6.00 Build 0)  -->
<svg version="1.1" id="Layer_1" xmlns="http://www.w3.org/2000/svg" xmlns:xlink="http://www.w3.org/1999/xlink" x="0px" y="0px"
	 viewBox="0 0 38.2 43.7" style="enable-background:new 0 0 38.2 43.7;" xml:space="preserve">
<style type="text/css">
	.st0{fill:url(#SVGID_1_);}
</style>
<linearGradient id="SVGID_1_" gradientUnits="userSpaceOnUse" x1="38.7727" y1="6.0366" x2="6.8732" y2="37.9361">
	<stop  offset="0" style="stop-color:#323232"/>
	<stop  offset="1.484394e-02" style="stop-color:#2F2F2F"/>
	<stop  offset="0.1264" style="stop-color:#1E1E1E"/>
	<stop  offset="0.2646" style="stop-color:#131313"/>
	<stop  offset="0.4594" style="stop-color:#0C0C0C"/>
	<stop  offset="1" style="stop-color:#0A0A0A"/>
</linearGradient>
<path class="st0" d="M23,26.5c0,0.5,0.2,0.9,0.5,1.3c0.4,0.3,0.8,0.5,1.5,0.5h4.2v6.5c-0.9,0.4-1.9,0.7-2.8,0.9
	c-1,0.2-2,0.4-3.2,0.4c-1.9,0-3.7-0.3-5.3-1c-1.6-0.6-3-1.6-4.1-2.8c-1.1-1.2-2-2.7-2.7-4.5c-0.6-1.8-0.9-3.8-0.9-6
	c0-2.1,0.3-3.9,0.9-5.6c0.6-1.7,1.4-3.1,2.4-4.3c1-1.2,2.3-2.1,3.8-2.8c1.5-0.7,3.2-1,5-1c1,0,1.9,0,2.7,0.1
	c0.8,0.1,1.6,0.3,2.3,0.5C28,9,28.7,9.3,29.4,9.7c0.7,0.3,1.4,0.7,2.2,1.2c0.8,0.5,1.6,0.7,2.3,0.5c0.7-0.2,1.3-0.6,1.7-1.3l2.9-4.4
	c-0.9-0.8-1.8-1.6-2.9-2.3c-1.1-0.7-2.3-1.3-3.6-1.8c-1.3-0.5-2.8-0.9-4.3-1.2c-1.6-0.3-3.2-0.4-5-0.4c-3.4,0-6.6,0.5-9.3,1.6
	c-2.8,1.1-5.2,2.6-7.1,4.5c-2,1.9-3.5,4.2-4.5,6.9C0.5,15.7,0,18.7,0,21.9c0,3.1,0.6,6,1.7,8.7s2.7,5,4.8,6.9
	c2.1,1.9,4.5,3.5,7.4,4.6c2.9,1.1,6.1,1.7,9.6,1.7c2.7,0,5.3-0.4,7.8-1.1c2.5-0.7,4.8-1.9,7-3.5v-18H23V26.5z"/>
</svg>
