<?xml version="1.0" encoding="utf-8"?>
<!-- Generator: Adobe Illustrator 21.0.0, SVG Export Plug-In . SVG Version: 6.00 Build 0)  -->
<svg version="1.1" id="Layer_1" xmlns="http://www.w3.org/2000/svg" xmlns:xlink="http://www.w3.org/1999/xlink" x="0px" y="0px"
	 viewBox="0 0 49.1 43.7" style="enable-background:new 0 0 49.1 43.7;" xml:space="preserve">
<style type="text/css">
	.st0{fill:url(#SVGID_1_);}
</style>
<g>
	<linearGradient id="SVGID_1_" gradientUnits="userSpaceOnUse" x1="47.7826" y1="-1.3625" x2="1.3575" y2="45.0625">
		<stop  offset="0" style="stop-color:#323232"/>
		<stop  offset="1.484394e-02" style="stop-color:#2F2F2F"/>
		<stop  offset="0.1264" style="stop-color:#1E1E1E"/>
		<stop  offset="0.2646" style="stop-color:#131313"/>
		<stop  offset="0.4594" style="stop-color:#0C0C0C"/>
		<stop  offset="1" style="stop-color:#0A0A0A"/>
	</linearGradient>
	<path class="st0" d="M41.4,0c-0.4,0-0.8,0-1.2,0c-0.3,0-0.6,0.1-0.9,0.2c-0.3,0.1-0.5,0.3-0.7,0.5S38.2,1.2,38,1.6L26.8,23.6
		c-0.4,0.8-0.8,1.6-1.2,2.4c-0.4,0.8-0.7,1.7-1.1,2.6c-0.3-0.9-0.7-1.7-1.1-2.5c-0.4-0.8-0.8-1.6-1.2-2.4L11.1,1.6
		c-0.2-0.4-0.4-0.7-0.6-0.9S10,0.3,9.8,0.2C9.5,0.1,9.2,0,8.9,0C8.6,0,8.2,0,7.7,0H0v43.7h8.9V18.6c0-0.6,0-1.2-0.1-1.9
		s-0.1-1.4-0.1-2.1l11.6,22.5c0.4,0.7,0.8,1.2,1.5,1.6c0.6,0.4,1.3,0.5,2.1,0.5h1.4c0.8,0,1.5-0.2,2.1-0.5c0.6-0.4,1.1-0.9,1.5-1.6
		l11.6-22.5c-0.1,0.7-0.1,1.4-0.2,2.1c0,0.7,0,1.3,0,1.9v25.1h8.9V0H41.4z"/>
</g>
</svg>
