<?xml version="1.0" encoding="utf-8"?>
<!-- Generator: Adobe Illustrator 21.0.0, SVG Export Plug-In . SVG Version: 6.00 Build 0)  -->
<svg version="1.1" id="Layer_1" xmlns="http://www.w3.org/2000/svg" xmlns:xlink="http://www.w3.org/1999/xlink" x="0px" y="0px"
	 viewBox="0 0 30 43.7" style="enable-background:new 0 0 30 43.7;" xml:space="preserve">
<style type="text/css">
	.st0{fill:url(#SVGID_1_);}
</style>
<linearGradient id="SVGID_1_" gradientUnits="userSpaceOnUse" x1="31.1779" y1="6.3317" x2="-0.2949" y2="37.8045">
	<stop  offset="0" style="stop-color:#323232"/>
	<stop  offset="1.484394e-02" style="stop-color:#2F2F2F"/>
	<stop  offset="0.1264" style="stop-color:#1E1E1E"/>
	<stop  offset="0.2646" style="stop-color:#131313"/>
	<stop  offset="0.4594" style="stop-color:#0C0C0C"/>
	<stop  offset="1" style="stop-color:#0A0A0A"/>
</linearGradient>
<path class="st0" d="M29.4,4.6c-0.8-0.7-1.6-1.3-2.6-1.9c-1-0.6-2-1-3.1-1.4c-1.1-0.4-2.3-0.7-3.5-0.9C18.9,0.1,17.6,0,16.3,0
	c-2.3,0-4.4,0.4-6.3,1.1C8.2,1.8,6.7,2.8,5.5,4C4.2,5.1,3.3,6.5,2.6,8c-0.6,1.5-1,3.1-1,4.7c0,2,0.3,3.7,0.8,5
	c0.5,1.4,1.3,2.5,2.2,3.4c0.9,0.9,1.9,1.6,3,2.2c1.1,0.6,2.3,1,3.5,1.4c1.2,0.4,2.4,0.7,3.5,1c1.1,0.3,2.1,0.7,3,1.1
	c0.9,0.4,1.6,0.9,2.2,1.6c0.5,0.6,0.8,1.4,0.8,2.4c0,1.7-0.5,3-1.5,3.8c-1,0.8-2.4,1.2-4.2,1.2c-1.3,0-2.5-0.2-3.5-0.6
	c-1-0.4-1.8-0.8-2.6-1.2c-0.8-0.5-1.4-0.9-2-1.2c-0.6-0.4-1.2-0.6-1.8-0.6c-0.5,0-0.9,0.1-1.2,0.3c-0.4,0.2-0.7,0.5-0.9,0.8L0,38.1
	c0.8,0.8,1.8,1.6,3,2.3c1.1,0.7,2.3,1.3,3.6,1.8c1.3,0.5,2.6,0.9,4,1.2s2.7,0.4,4.1,0.4c2.4,0,4.6-0.4,6.5-1.1
	c1.9-0.7,3.5-1.7,4.8-3c1.3-1.3,2.3-2.8,3-4.5c0.7-1.7,1-3.6,1-5.5c0-1.8-0.3-3.3-0.8-4.6c-0.5-1.3-1.3-2.3-2.2-3.2
	c-0.9-0.9-1.9-1.6-3.1-2.2c-1.1-0.6-2.3-1.1-3.5-1.5c-1.2-0.4-2.4-0.8-3.5-1.1c-1.1-0.3-2.2-0.7-3.1-1.1c-0.9-0.4-1.6-0.9-2.2-1.5
	c-0.5-0.6-0.8-1.3-0.8-2.1c0-1.4,0.5-2.4,1.4-3.2c0.9-0.8,2.3-1.2,4.2-1.2c1.1,0,2,0.1,2.9,0.4c0.8,0.3,1.6,0.6,2.2,1
	c0.7,0.4,1.2,0.7,1.8,1c0.5,0.3,1,0.4,1.5,0.4c0.5,0,0.9-0.1,1.2-0.4c0.3-0.2,0.6-0.6,0.9-1.1L29.4,4.6z"/>
</svg>
