<?xml version="1.0" encoding="utf-8"?>
<!-- Generator: Adobe Illustrator 21.0.0, SVG Export Plug-In . SVG Version: 6.00 Build 0)  -->
<svg version="1.1" id="Layer_1" xmlns="http://www.w3.org/2000/svg" xmlns:xlink="http://www.w3.org/1999/xlink" x="0px" y="0px"
	 viewBox="0 0 35.8 43.7" style="enable-background:new 0 0 35.8 43.7;" xml:space="preserve">
<style type="text/css">
	.st0{fill:url(#SVGID_1_);}
</style>
<linearGradient id="SVGID_1_" gradientUnits="userSpaceOnUse" x1="31.9445" y1="7.7906" x2="-1.9874" y2="41.7225">
	<stop  offset="0" style="stop-color:#323232"/>
	<stop  offset="1.484394e-02" style="stop-color:#2F2F2F"/>
	<stop  offset="0.1264" style="stop-color:#1E1E1E"/>
	<stop  offset="0.2646" style="stop-color:#131313"/>
	<stop  offset="0.4594" style="stop-color:#0C0C0C"/>
	<stop  offset="1" style="stop-color:#0A0A0A"/>
</linearGradient>
<path class="st0" d="M26.5,28.5c-0.5-0.7-1-1.3-1.6-1.8c-0.6-0.5-1.2-0.9-1.9-1.3c1.4-0.5,2.7-1.2,3.8-2.1c1.1-0.8,2-1.8,2.7-2.9
	c0.7-1.1,1.3-2.2,1.7-3.5c0.4-1.3,0.6-2.6,0.6-4c0-1.9-0.3-3.6-1-5.2c-0.6-1.6-1.7-2.9-3.1-4.1c-1.4-1.2-3.2-2.1-5.5-2.7
	s-4.9-1-8.1-1H0v43.7h10.1V27.5h2.6c0.8,0,1.4,0.1,1.8,0.4c0.4,0.3,0.8,0.6,1.1,1.2l7.3,12.7c0.7,1.3,2,1.9,3.7,1.9h9.2L26.5,28.5z
	 M10.1,20.5v-13h4.1c2.6,0,4.6,0.5,5.8,1.6c1.2,1.1,1.9,2.6,1.9,4.5c0,1-0.1,1.9-0.4,2.7c-0.3,0.8-0.7,1.6-1.4,2.2
	c-0.6,0.6-1.4,1.1-2.4,1.5c-1,0.4-2.1,0.5-3.5,0.5H10.1z"/>
</svg>
