<?xml version="1.0" encoding="utf-8"?>
<!-- Generator: Adobe Illustrator 21.0.0, SVG Export Plug-In . SVG Version: 6.00 Build 0)  -->
<svg version="1.1" id="Layer_1" xmlns="http://www.w3.org/2000/svg" xmlns:xlink="http://www.w3.org/1999/xlink" x="0px" y="0px"
	 viewBox="0 0 44.4 43.7" style="enable-background:new 0 0 44.4 43.7;" xml:space="preserve">
<style type="text/css">
	.st0{fill:url(#SVGID_1_);}
</style>
<linearGradient id="SVGID_1_" gradientUnits="userSpaceOnUse" x1="38.0518" y1="6.0253" x2="6.392" y2="37.6851">
	<stop  offset="0" style="stop-color:#323232"/>
	<stop  offset="1.484394e-02" style="stop-color:#2F2F2F"/>
	<stop  offset="0.1264" style="stop-color:#1E1E1E"/>
	<stop  offset="0.2646" style="stop-color:#131313"/>
	<stop  offset="0.4594" style="stop-color:#0C0C0C"/>
	<stop  offset="1" style="stop-color:#0A0A0A"/>
</linearGradient>
<path class="st0" d="M33.5,27.6c-0.5,1.7-1.3,3.1-2.4,4.3c-1,1.2-2.3,2.1-3.8,2.7c-1.5,0.6-3.2,0.9-5.1,0.9c-1.9,0-3.6-0.3-5.1-0.9
	c-1.5-0.6-2.8-1.5-3.8-2.7c-1-1.2-1.8-2.6-2.4-4.3c-0.5-1.7-0.8-3.6-0.8-5.7c0-2.1,0.3-4,0.8-5.7c0.5-1.7,1.3-3.1,2.4-4.3
	s2.3-2.1,3.8-2.7c1.5-0.6,3.2-0.9,5.1-0.9c1.9,0,3.6,0.3,5.1,0.9c1.5,0.6,2.7,1.5,3.8,2.7c1,1.2,1.8,2.6,2.4,4.3
	c0.5,1.7,0.8,3.6,0.8,5.7C34.3,24,34,25.9,33.5,27.6z M42.8,13.2c-1.1-2.7-2.6-5-4.5-6.9s-4.3-3.5-7-4.6S25.6,0,22.3,0
	c-3.3,0-6.4,0.6-9.1,1.7c-2.7,1.1-5.1,2.7-7,4.6c-1.9,2-3.5,4.3-4.5,6.9C0.5,15.9,0,18.7,0,21.8c0,3.1,0.5,6,1.6,8.6
	c1.1,2.7,2.6,5,4.5,6.9c1.9,2,4.3,3.5,7,4.6c2.7,1.1,5.8,1.7,9.1,1.7c3.3,0,6.4-0.6,9.1-1.7s5.1-2.7,7-4.6c1.9-2,3.4-4.3,4.5-6.9
	c1.1-2.7,1.6-5.5,1.6-8.6C44.4,18.8,43.9,15.9,42.8,13.2z"/>
</svg>
