<?xml version="1.0" encoding="utf-8"?>
<!-- Generator: Adobe Illustrator 21.0.0, SVG Export Plug-In . SVG Version: 6.00 Build 0)  -->
<svg version="1.1" id="Layer_1" xmlns="http://www.w3.org/2000/svg" xmlns:xlink="http://www.w3.org/1999/xlink" x="0px" y="0px"
	 viewBox="0 0 44.2 43.7" style="enable-background:new 0 0 44.2 43.7;" xml:space="preserve">
<style type="text/css">
	.st0{fill:url(#SVGID_1_);}
</style>
<linearGradient id="SVGID_1_" gradientUnits="userSpaceOnUse" x1="39.7124" y1="-4.5171" x2="4.5076" y2="30.6877">
	<stop  offset="0" style="stop-color:#323232"/>
	<stop  offset="1.484394e-02" style="stop-color:#2F2F2F"/>
	<stop  offset="0.1264" style="stop-color:#1E1E1E"/>
	<stop  offset="0.2646" style="stop-color:#131313"/>
	<stop  offset="0.4594" style="stop-color:#0C0C0C"/>
	<stop  offset="1" style="stop-color:#0A0A0A"/>
</linearGradient>
<path class="st0" d="M36,0c-0.8,0-1.5,0.2-2.1,0.7c-0.6,0.5-1,1-1.2,1.5l-8.4,23.4c-0.4,1-0.8,2.1-1.1,3.3c-0.4,1.2-0.7,2.5-0.9,3.8
	c-0.3-1.3-0.7-2.6-1.1-3.8c-0.4-1.2-0.8-2.3-1.2-3.3L11.5,2.2c-0.3-0.6-0.7-1.2-1.2-1.6S9,0,8.2,0H0l17.5,43.7h9.2L44.2,0H36z"/>
</svg>
