<?xml version="1.0" encoding="utf-8"?>
<!-- Generator: Adobe Illustrator 21.0.0, SVG Export Plug-In . SVG Version: 6.00 Build 0)  -->
<svg version="1.1" id="Layer_1" xmlns="http://www.w3.org/2000/svg" xmlns:xlink="http://www.w3.org/1999/xlink" x="0px" y="0px"
	 viewBox="0 0 39.7 43.7" style="enable-background:new 0 0 39.7 43.7;" xml:space="preserve">
<style type="text/css">
	.st0{fill:url(#SVGID_1_);}
</style>
<linearGradient id="SVGID_1_" gradientUnits="userSpaceOnUse" x1="31.3397" y1="4.1282" x2="-4.121" y2="39.589">
	<stop  offset="0" style="stop-color:#323232"/>
	<stop  offset="1.484394e-02" style="stop-color:#2F2F2F"/>
	<stop  offset="0.1264" style="stop-color:#1E1E1E"/>
	<stop  offset="0.2646" style="stop-color:#131313"/>
	<stop  offset="0.4594" style="stop-color:#0C0C0C"/>
	<stop  offset="1" style="stop-color:#0A0A0A"/>
</linearGradient>
<path class="st0" d="M28.4,27.7c-0.6,1.7-1.4,3.2-2.4,4.4c-1,1.2-2.3,2.1-3.9,2.8c-1.5,0.6-3.3,1-5.2,1h-6.8V7.8H17
	c1.9,0,3.7,0.3,5.2,1c1.5,0.7,2.8,1.6,3.9,2.8c1.1,1.2,1.9,2.7,2.4,4.4c0.6,1.7,0.8,3.7,0.8,5.9C29.3,24,29,26,28.4,27.7z M38,13.1
	c-1.1-2.7-2.6-5-4.6-6.9s-4.4-3.5-7.2-4.6C23.5,0.6,20.4,0,17,0H0v43.7h17c3.4,0,6.5-0.5,9.3-1.6c2.8-1.1,5.2-2.6,7.2-4.6
	c2-2,3.5-4.3,4.6-6.9c1.1-2.7,1.6-5.6,1.6-8.7C39.7,18.7,39.1,15.8,38,13.1z"/>
</svg>
