<?xml version="1.0" encoding="utf-8"?>
<!-- Generator: Adobe Illustrator 21.0.0, SVG Export Plug-In . SVG Version: 6.00 Build 0)  -->
<svg version="1.1" id="Layer_1" xmlns="http://www.w3.org/2000/svg" xmlns:xlink="http://www.w3.org/1999/xlink" x="0px" y="0px"
	 viewBox="0 0 37.1 43.7" style="enable-background:new 0 0 37.1 43.7;" xml:space="preserve">
<style type="text/css">
	.st0{fill:url(#SVGID_1_);}
</style>
<linearGradient id="SVGID_1_" gradientUnits="userSpaceOnUse" x1="36.2604" y1="-0.875" x2="0.8603" y2="34.5251">
	<stop  offset="0" style="stop-color:#323232"/>
	<stop  offset="1.484394e-02" style="stop-color:#2F2F2F"/>
	<stop  offset="0.1264" style="stop-color:#1E1E1E"/>
	<stop  offset="0.2646" style="stop-color:#131313"/>
	<stop  offset="0.4594" style="stop-color:#0C0C0C"/>
	<stop  offset="1" style="stop-color:#0A0A0A"/>
</linearGradient>
<path class="st0" d="M15,34.6c-1.1-0.4-2-1.1-2.7-1.9c-0.7-0.8-1.3-1.9-1.7-3.1c-0.4-1.2-0.6-2.6-0.6-4.1V0H0v25.6
	c0,2.6,0.4,5.1,1.3,7.3C2.1,35.1,3.4,37,5,38.6c1.6,1.6,3.5,2.8,5.8,3.7c2.3,0.9,4.9,1.3,7.8,1.3c2.9,0,5.4-0.4,7.7-1.3
	c2.3-0.9,4.2-2.1,5.8-3.7c1.6-1.6,2.8-3.5,3.7-5.7c0.9-2.2,1.3-4.6,1.3-7.3V0h-10v25.6c0,1.5-0.2,2.9-0.6,4.1
	c-0.4,1.2-0.9,2.2-1.7,3c-0.7,0.8-1.6,1.5-2.7,1.9c-1.1,0.4-2.3,0.7-3.6,0.7C17.2,35.3,16,35.1,15,34.6z"/>
</svg>
