<?xml version="1.0" encoding="utf-8"?>
<!-- Generator: Adobe Illustrator 21.0.0, SVG Export Plug-In . SVG Version: 6.00 Build 0)  -->
<svg version="1.1" id="Capa_1" xmlns="http://www.w3.org/2000/svg" xmlns:xlink="http://www.w3.org/1999/xlink" x="0px" y="0px"
	 viewBox="0 0 49.2 37.3" style="enable-background:new 0 0 49.2 37.3;" xml:space="preserve">
<style type="text/css">
	.st0{fill:#646464;}
</style>
<path class="st0" d="M43.3,0H5.8C2.6,0,0,2.5,0,5.6v26.1c0,3.1,2.6,5.6,5.8,5.6h37.5c3.2,0,5.8-2.5,5.8-5.6V5.6
	C49.2,2.5,46.6,0,43.3,0z M43.3,32.4H5.8c-0.5,0-0.9-0.3-0.9-0.7V9.1l17,14.3c0.3,0.3,0.8,0.5,1.2,0.5l2.9,0c0.5,0,0.9-0.2,1.2-0.5
	l17-14.3v22.7C44.2,32.1,43.8,32.4,43.3,32.4z M24.6,18.9L8.1,4.9h33L24.6,18.9z"/>
</svg>
