<?xml version="1.0" encoding="utf-8"?>
<!-- Generator: Adobe Illustrator 21.0.0, SVG Export Plug-In . SVG Version: 6.00 Build 0)  -->
<svg version="1.1" id="Layer_1" xmlns="http://www.w3.org/2000/svg" xmlns:xlink="http://www.w3.org/1999/xlink" x="0px" y="0px"
	 viewBox="0 0 57.6 32.4" style="enable-background:new 0 0 57.6 32.4;" xml:space="preserve">
<style type="text/css">
	.st0{fill:#EBEBEB;}
</style>
<g>
	<g>
		<path class="st0" d="M37.8,16.2L23.9,9.3v13.9L37.8,16.2z"/>
	</g>
</g>
<g>
	<g>
		<g>
			<path class="st0" d="M44.2,16.2h-0.8c0,4-1.6,7.8-4.3,10.4c-2.7,2.7-6.4,4.3-10.4,4.3s-7.8-1.6-10.4-4.3S14,20.3,14,16.2
				s1.6-7.8,4.3-10.4s6.4-4.3,10.4-4.3s7.8,1.6,10.4,4.3c2.7,2.7,4.3,6.4,4.3,10.4H44.2H45C45,7.3,37.7,0,28.8,0S12.6,7.3,12.6,16.2
				s7.3,16.2,16.2,16.2S45,25.1,45,16.2H44.2z"/>
		</g>
	</g>
</g>
</svg>
