<?xml version="1.0" encoding="utf-8"?>
<!-- Generator: Adobe Illustrator 21.0.0, SVG Export Plug-In . SVG Version: 6.00 Build 0)  -->
<svg version="1.1" id="Layer_1" xmlns="http://www.w3.org/2000/svg" xmlns:xlink="http://www.w3.org/1999/xlink" x="0px" y="0px"
	 viewBox="0 0 30 30" style="enable-background:new 0 0 30 30;" xml:space="preserve">
<style type="text/css">
	.st0{fill:#FFFFFF;}
</style>
<g>
	<path class="st0" d="M17.1,16.3h-0.5l-0.2-0.2c0.6-0.6,0.9-1.5,0.9-2.4c0-2.1-1.7-3.7-3.7-3.7S10,11.7,10,13.7s1.7,3.7,3.7,3.7
		c0.9,0,1.8-0.3,2.4-0.9l0.2,0.2v0.5l2.9,2.9l0.9-0.9L17.1,16.3z M13.7,16.3c-1.4,0-2.6-1.1-2.6-2.6s1.1-2.6,2.6-2.6
		s2.6,1.1,2.6,2.6S15.1,16.3,13.7,16.3z"/>
</g>
</svg>
