<?xml version="1.0" encoding="utf-8"?>
<!-- Generator: Adobe Illustrator 21.0.0, SVG Export Plug-In . SVG Version: 6.00 Build 0)  -->
<svg version="1.1" id="Layer_1" xmlns="http://www.w3.org/2000/svg" xmlns:xlink="http://www.w3.org/1999/xlink" x="0px" y="0px"
	 viewBox="0 0 30 30" style="enable-background:new 0 0 30 30;" xml:space="preserve">
<style type="text/css">
	.st0{opacity:0.25;}
</style>
<path class="st0" d="M18,16.7h-0.7L17,16.4c0.8-1,1.3-2.2,1.3-3.6c0-3.1-2.5-5.6-5.6-5.6s-5.6,2.5-5.6,5.6s2.5,5.6,5.6,5.6
	c1.4,0,2.7-0.5,3.6-1.3l0.2,0.2V18l4.3,4.3l1.3-1.3L18,16.7z M12.8,16.7C10.7,16.7,9,15,9,12.8S10.7,9,12.8,9s3.9,1.7,3.9,3.9
	S15,16.7,12.8,16.7z"/>
</svg>
