<?xml version="1.0" encoding="utf-8"?>
<!-- Generator: Adobe Illustrator 21.0.0, SVG Export Plug-In . SVG Version: 6.00 Build 0)  -->
<svg version="1.1" id="Layer_1" xmlns="http://www.w3.org/2000/svg" xmlns:xlink="http://www.w3.org/1999/xlink" x="0px" y="0px"
	 viewBox="0 0 30 30" style="enable-background:new 0 0 30 30;" xml:space="preserve">
<style type="text/css">
	.st0{fill:#FFFFFF;}
</style>
<path class="st0" d="M24.9,8.6c-0.7,0.3-1.5,0.6-2.4,0.6C23.4,8.8,24.1,8,24.4,7c-0.8,0.5-1.7,0.8-2.6,1c-0.7-0.8-1.8-1.3-3-1.3
	c-2.2,0-4.1,1.8-4.1,4.1c0,0.3,0,0.6,0.1,1c-3.5-0.2-6.4-1.8-8.5-4.3C6.1,8.1,5.8,8.8,5.8,9.6c0,1.4,0.7,2.7,1.8,3.5
	c-0.6,0-1.3-0.2-1.8-0.5c0,0,0,0,0,0.1c0,2,1.4,3.7,3.3,4c-0.3,0.2-0.7,0.3-1,0.3c-0.2,0-0.6,0-0.8-0.1c0.6,1.6,2,2.8,3.9,2.9
	c-1.4,1.1-3.2,1.8-5.1,1.8c-0.3,0-0.6,0-1-0.1c1.8,1.2,4,1.8,6.3,1.8C18.9,23.3,23,17,23,11.5c0-0.2,0-0.3,0-0.6
	C23.8,10.2,24.4,9.4,24.9,8.6z"/>
</svg>
