<?xml version="1.0" encoding="utf-8"?>
<!-- Generator: Adobe Illustrator 21.0.0, SVG Export Plug-In . SVG Version: 6.00 Build 0)  -->
<svg version="1.1" id="Layer_1" xmlns="http://www.w3.org/2000/svg" xmlns:xlink="http://www.w3.org/1999/xlink" x="0px" y="0px"
	 viewBox="0 0 30 30" style="enable-background:new 0 0 30 30;" xml:space="preserve">
<style type="text/css">
	.st0{opacity:0.25;}
	.st1{fill:#FFFFFF;}
</style>
<g>
	<g class="st0">
		<path id="WhatsApp_2_" class="st1" d="M25,14.7c0,5.4-4.4,9.7-9.8,9.7c-1.7,0-3.3-0.4-4.7-1.2L5,25l1.8-5.2
			c-0.9-1.5-1.4-3.2-1.4-5C5.4,9.4,9.8,5,15.2,5C20.6,5,25,9.4,25,14.7z M15.2,6.6c-4.6,0-8.3,3.7-8.3,8.2c0,1.8,0.6,3.5,1.6,4.8
			l-1,3l3.2-1c1.3,0.9,2.9,1.4,4.5,1.4c4.6,0,8.3-3.7,8.3-8.2S19.7,6.6,15.2,6.6z M20.1,17c-0.1-0.1-0.2-0.2-0.5-0.3
			c-0.2-0.1-1.4-0.7-1.6-0.8c-0.2-0.1-0.4-0.1-0.5,0.1c-0.2,0.2-0.6,0.8-0.8,0.9c-0.1,0.2-0.3,0.2-0.5,0.1c-0.2-0.1-1-0.4-1.9-1.2
			c-0.7-0.6-1.2-1.4-1.3-1.7c-0.1-0.2,0-0.4,0.1-0.5c0.1-0.1,0.2-0.3,0.4-0.4c0.1-0.1,0.2-0.2,0.2-0.4c0.1-0.2,0-0.3,0-0.4
			c-0.1-0.1-0.5-1.3-0.7-1.8c-0.2-0.5-0.4-0.4-0.5-0.4c-0.1,0-0.3,0-0.5,0c-0.2,0-0.4,0.1-0.6,0.3c-0.2,0.2-0.8,0.8-0.8,2
			c0,1.2,0.9,2.3,1,2.5c0.1,0.2,1.7,2.6,4.1,3.6c2.4,1,2.4,0.6,2.9,0.6c0.4,0,1.4-0.6,1.6-1.1C20.2,17.6,20.2,17.1,20.1,17z"/>
	</g>
</g>
</svg>
