<?xml version="1.0" encoding="utf-8"?>
<!-- Generator: Adobe Illustrator 21.0.0, SVG Export Plug-In . SVG Version: 6.00 Build 0)  -->
<svg version="1.1" id="Layer_1" xmlns="http://www.w3.org/2000/svg" xmlns:xlink="http://www.w3.org/1999/xlink" x="0px" y="0px"
	 viewBox="0 0 20 20" style="enable-background:new 0 0 20 20;" xml:space="preserve">
<style type="text/css">
	.st0{fill:#646464;}
</style>
<path id="WhatsApp_2_" class="st0" d="M20,9.7c0,5.4-4.4,9.7-9.8,9.7c-1.7,0-3.3-0.4-4.7-1.2L0,20l1.8-5.2c-0.9-1.5-1.4-3.2-1.4-5
	C0.4,4.4,4.8,0,10.2,0S20,4.4,20,9.7z M10.2,1.6c-4.6,0-8.3,3.7-8.3,8.2c0,1.8,0.6,3.5,1.6,4.8l-1,3l3.2-1C7,17.5,8.6,18,10.2,18
	c4.6,0,8.3-3.7,8.3-8.2S14.7,1.6,10.2,1.6z M15.1,12c-0.1-0.1-0.2-0.2-0.5-0.3c-0.2-0.1-1.4-0.7-1.6-0.8c-0.2-0.1-0.4-0.1-0.5,0.1
	c-0.2,0.2-0.6,0.8-0.8,0.9c-0.1,0.2-0.3,0.2-0.5,0.1s-1-0.4-1.9-1.2C8.6,10.2,8.1,9.4,8,9.1C7.9,8.9,8,8.7,8.1,8.6s0.2-0.3,0.4-0.4
	C8.6,8.1,8.7,8,8.7,7.8c0.1-0.2,0-0.3,0-0.4C8.6,7.3,8.2,6.1,8,5.6S7.6,5.2,7.5,5.2s-0.3,0-0.5,0S6.6,5.3,6.4,5.5
	c-0.2,0.2-0.8,0.8-0.8,2s0.9,2.3,1,2.5s1.7,2.6,4.1,3.6s2.4,0.6,2.9,0.6c0.4,0,1.4-0.6,1.6-1.1C15.2,12.6,15.2,12.1,15.1,12z"/>
</svg>
