<?xml version="1.0" encoding="utf-8"?>
<!-- Generator: Adobe Illustrator 21.0.0, SVG Export Plug-In . SVG Version: 6.00 Build 0)  -->
<svg version="1.1" id="Layer_1" xmlns="http://www.w3.org/2000/svg" xmlns:xlink="http://www.w3.org/1999/xlink" x="0px" y="0px"
	 viewBox="0 0 19.9 20" style="enable-background:new 0 0 19.9 20;" xml:space="preserve">
<style type="text/css">
	.st0{fill:#646464;}
</style>
<g>
	<g>
		<g>
			<g>
				<path class="st0" d="M12.1,13.8c0-0.1,0-0.2-0.1-0.3c-0.1-0.2-0.2-0.2-0.3-0.2c-0.2,0-0.3,0.1-0.4,0.2c-0.1,0.1-0.1,0.1-0.1,0.1
					l0.1,3.3V17c0,0,0,0,0,0.1c0.1,0.1,0.2,0.2,0.3,0.2c0.2,0.1,0.4-0.1,0.5-0.2c0-0.1,0-0.1,0-0.2C12.1,15.7,12.1,14.8,12.1,13.8z
					 M12.1,13.8c0-0.1,0-0.2-0.1-0.3c-0.1-0.2-0.2-0.2-0.3-0.2c-0.2,0-0.3,0.1-0.4,0.2c-0.1,0.1-0.1,0.1-0.1,0.1l0.1,3.3V17
					c0,0,0,0,0,0.1c0.1,0.1,0.2,0.2,0.3,0.2c0.2,0.1,0.4-0.1,0.5-0.2c0-0.1,0-0.1,0-0.2C12.1,15.7,12.1,14.8,12.1,13.8z M15.7,9
					C11.9,8.9,8.1,8.9,4.2,9c-1.4,0-2.4,1.1-2.4,2.5v6c0,1.4,1,2.5,2.4,2.5c3.7,0.1,7.6,0.1,11.4,0c1.4,0,2.4-1.1,2.4-2.5v-6
					C18,10.1,17,9,15.7,9z M5.4,17.9H4.3v-6.2H3.2v-1h3.4v1H5.5L5.4,17.9L5.4,17.9z M9.4,15.3v2.6h-1v-0.6l-0.1,0.1
					c-0.2,0.2-0.5,0.5-0.7,0.6c-0.2,0.1-0.3,0.1-0.5,0.1s-0.3-0.2-0.4-0.3c-0.1-0.2-0.1-0.4-0.1-0.6c0-0.7,0-4.4,0-4.4h0.9
					c0,0,0,2.8,0,4c0,0.1,0,0.2,0,0.2c0,0.2,0.2,0.2,0.3,0.2C8,17.1,8.1,17,8.3,16.8c0,0,0-0.1,0.1-0.1v-4h1L9.4,15.3z M12.9,17.4
					c-0.2,0.4-0.4,0.6-0.8,0.6c-0.3,0-0.6-0.2-0.8-0.4l-0.1-0.1v0.4h-1v-7.2h1c0,0.8,0,2.4,0,2.4s0.1-0.1,0.1-0.2
					c0.2-0.2,0.3-0.3,0.6-0.4c0.4-0.1,0.8,0,1,0.5c0.2,0.2,0.2,0.6,0.2,0.8c0,1,0,2.1,0,3.1C13,17,13,17.2,12.9,17.4z M16.7,17.2
					c-0.2,0.5-0.6,0.8-1,0.9c-0.3,0.1-0.6,0.1-1-0.1c-0.4-0.2-0.6-0.6-0.8-1c-0.1-0.2-0.1-0.4-0.1-0.6c0-0.8,0-1.6,0-2.5
					c0-0.4,0.1-0.8,0.4-1.1c0.3-0.4,0.8-0.5,1.3-0.5c0.2,0,0.3,0,0.5,0.1c0.5,0.2,0.7,0.5,0.9,1c0,0.2,0.1,0.4,0.1,0.6
					c0,0.4,0,1.4,0,1.4h-1.9v1.4c0,0.2,0.2,0.4,0.3,0.4c0.3,0.1,0.6-0.2,0.6-0.4v-0.9h1C16.8,16,16.8,16.8,16.7,17.2z M15.7,13.7
					c0-0.3-0.3-0.5-0.6-0.4c-0.2,0.1-0.3,0.2-0.3,0.4v0.7h0.9V13.7z M12,13.5c-0.1-0.2-0.2-0.2-0.3-0.2c-0.2,0-0.3,0.1-0.4,0.2
					c-0.1,0.1-0.1,0.1-0.1,0.1l0.1,3.3V17c0,0,0,0,0,0.1c0.1,0.1,0.2,0.2,0.3,0.2c0.2,0.1,0.4-0.1,0.5-0.2c0-0.1,0-0.1,0-0.2
					c0-1,0-1.9,0-3C12.1,13.7,12.1,13.6,12,13.5z"/>
				<path class="st0" d="M14.5,2.1v5.3h-1V6.8c-0.1,0.1-0.2,0.2-0.3,0.3c-0.2,0.2-0.4,0.3-0.6,0.3c-0.4,0.1-0.7-0.1-0.8-0.4
					c0-0.2-0.1-0.2-0.1-0.4V2.1h1v4c0,0.1,0,0.1,0,0.2c0,0.2,0.2,0.2,0.3,0.2c0.2-0.1,0.4-0.2,0.5-0.4V6V2.1H14.5z"/>
				<path class="st0" d="M6.3,3C6,2.1,5.5,0.1,5.5,0.1H4.4c0,0,0.9,3,1.3,4.1c0,0.1,0,0.1,0,0.2v3h1.1v-3c0-0.1,0-0.1,0-0.2
					C7.2,2.9,8.1,0,8.1,0H6.9C7,0.1,6.5,2.1,6.3,3L6.3,3z"/>
				<path class="st0" d="M9.5,2L9.5,2C8.7,2,8.1,2.6,8.1,3.4v2.9c0,0.8,0.6,1.4,1.4,1.4l0,0c0.8,0,1.4-0.6,1.4-1.4V3.4
					C10.9,2.6,10.2,2,9.5,2z M9.8,6.2c0,0.2-0.2,0.5-0.6,0.4C9.1,6.5,9,6.4,9,6.2v-3c0-0.2,0.2-0.4,0.3-0.4c0.2-0.1,0.6,0.2,0.6,0.4
					V6.2z"/>
			</g>
		</g>
	</g>
</g>
</svg>
