<?xml version="1.0" encoding="utf-8"?>
<!-- Generator: Adobe Illustrator 21.0.0, SVG Export Plug-In . SVG Version: 6.00 Build 0)  -->
<svg version="1.1" id="Layer_1" xmlns="http://www.w3.org/2000/svg" xmlns:xlink="http://www.w3.org/1999/xlink" x="0px" y="0px"
	 viewBox="0 0 30 30" style="enable-background:new 0 0 30 30;" xml:space="preserve">
<style type="text/css">
	.st0{opacity:0.25;}
	.st1{fill:#FFFFFF;}
</style>
<g>
	<g class="st0">
		<g>
			<g>
				<g>
					<g>
						<path class="st1" d="M17.2,18.8c0-0.1,0-0.2-0.1-0.3c-0.1-0.2-0.2-0.2-0.3-0.2c-0.2,0-0.3,0.1-0.4,0.2
							c-0.1,0.1-0.1,0.1-0.1,0.1l0.1,3.3V22c0,0,0,0,0,0.1c0.1,0.1,0.2,0.2,0.3,0.2c0.2,0.1,0.4-0.1,0.5-0.2c0-0.1,0-0.1,0-0.2
							C17.2,20.7,17.2,19.8,17.2,18.8z M17.2,18.8c0-0.1,0-0.2-0.1-0.3c-0.1-0.2-0.2-0.2-0.3-0.2c-0.2,0-0.3,0.1-0.4,0.2
							c-0.1,0.1-0.1,0.1-0.1,0.1l0.1,3.3V22c0,0,0,0,0,0.1c0.1,0.1,0.2,0.2,0.3,0.2c0.2,0.1,0.4-0.1,0.5-0.2c0-0.1,0-0.1,0-0.2
							C17.2,20.7,17.2,19.8,17.2,18.8z M20.8,14c-3.8-0.1-7.6-0.1-11.5,0c-1.4,0-2.4,1.1-2.4,2.5v6c0,1.4,1,2.5,2.4,2.5
							c3.7,0.1,7.6,0.1,11.4,0c1.4,0,2.4-1.1,2.4-2.5v-6C23.1,15.1,22.1,14,20.8,14z M10.5,22.9H9.4v-6.2H8.3v-1h3.4v1h-1.1
							L10.5,22.9L10.5,22.9z M14.5,20.3v2.6h-1v-0.6l-0.1,0.1c-0.2,0.2-0.5,0.5-0.7,0.6s-0.3,0.1-0.5,0.1s-0.3-0.2-0.4-0.3
							c-0.1-0.2-0.1-0.4-0.1-0.6c0-0.7,0-4.4,0-4.4h0.9c0,0,0,2.8,0,4c0,0.1,0,0.2,0,0.2c0,0.2,0.2,0.2,0.3,0.2
							c0.2-0.1,0.3-0.2,0.5-0.4c0,0,0-0.1,0.1-0.1v-4h1L14.5,20.3z M18,22.4c-0.2,0.4-0.4,0.6-0.8,0.6c-0.3,0-0.6-0.2-0.8-0.4
							l-0.1-0.1v0.4h-1v-7.2h1c0,0.8,0,2.4,0,2.4s0.1-0.1,0.1-0.2c0.2-0.2,0.3-0.3,0.6-0.4c0.4-0.1,0.8,0,1,0.5
							c0.2,0.2,0.2,0.6,0.2,0.8c0,1,0,2.1,0,3.1C18.1,22,18.1,22.2,18,22.4z M21.8,22.2c-0.2,0.5-0.6,0.8-1,0.9
							c-0.3,0.1-0.6,0.1-1-0.1s-0.6-0.6-0.8-1c-0.1-0.2-0.1-0.4-0.1-0.6c0-0.8,0-1.6,0-2.5c0-0.4,0.1-0.8,0.4-1.1
							c0.3-0.4,0.8-0.5,1.3-0.5c0.2,0,0.3,0,0.5,0.1c0.5,0.2,0.7,0.5,0.9,1c0,0.2,0.1,0.4,0.1,0.6c0,0.4,0,1.4,0,1.4h-1.9v1.4
							c0,0.2,0.2,0.4,0.3,0.4c0.3,0.1,0.6-0.2,0.6-0.4v-0.9h1C21.9,21,21.9,21.8,21.8,22.2z M20.8,18.7c0-0.3-0.3-0.5-0.6-0.4
							c-0.2,0.1-0.3,0.2-0.3,0.4v0.7h0.9V18.7z M17.1,18.5c-0.1-0.2-0.2-0.2-0.3-0.2c-0.2,0-0.3,0.1-0.4,0.2
							c-0.1,0.1-0.1,0.1-0.1,0.1l0.1,3.3V22c0,0,0,0,0,0.1c0.1,0.1,0.2,0.2,0.3,0.2c0.2,0.1,0.4-0.1,0.5-0.2c0-0.1,0-0.1,0-0.2
							c0-1,0-1.9,0-3C17.2,18.7,17.2,18.6,17.1,18.5z"/>
						<path class="st1" d="M19.6,7.1v5.3h-1v-0.6c-0.1,0.1-0.2,0.2-0.3,0.3c-0.2,0.2-0.4,0.3-0.6,0.3c-0.4,0.1-0.7-0.1-0.8-0.4
							c0-0.2-0.1-0.2-0.1-0.4V7.1h1v4c0,0.1,0,0.1,0,0.2c0,0.2,0.2,0.2,0.3,0.2c0.2-0.1,0.4-0.2,0.5-0.4V11V7.1H19.6z"/>
						<path class="st1" d="M11.4,8c-0.3-0.9-0.8-2.9-0.8-2.9H9.5c0,0,0.9,3,1.3,4.1c0,0.1,0,0.1,0,0.2v3h1.1v-3c0-0.1,0-0.1,0-0.2
							C12.3,7.9,13.2,5,13.2,5H12C12.1,5.1,11.6,7.1,11.4,8L11.4,8z"/>
						<path class="st1" d="M14.6,7L14.6,7c-0.8,0-1.4,0.6-1.4,1.4v2.9c0,0.8,0.6,1.4,1.4,1.4l0,0c0.8,0,1.4-0.6,1.4-1.4V8.4
							C16,7.6,15.3,7,14.6,7z M14.9,11.2c0,0.2-0.2,0.5-0.6,0.4c-0.1-0.1-0.2-0.2-0.2-0.4v-3c0-0.2,0.2-0.4,0.3-0.4
							C14.6,7.7,15,8,15,8.2v3H14.9z"/>
					</g>
				</g>
			</g>
		</g>
	</g>
</g>
</svg>
